<svg width="760" height="200" viewBox="0 0 760 200" fill="none" xmlns="http://www.w3.org/2000/svg">
  <defs>
    <linearGradient id="lbg" x1="20" y1="20" x2="180" y2="180" gradientUnits="userSpaceOnUse">
      <stop offset="0" stop-color="#141b30"/>
      <stop offset="0.55" stop-color="#0d1324"/>
      <stop offset="1" stop-color="#080b16"/>
    </linearGradient>
    <radialGradient id="lglow" cx="0.5" cy="0.42" r="0.65">
      <stop offset="0" stop-color="#5b6bff" stop-opacity="0.30"/>
      <stop offset="0.5" stop-color="#7c3aed" stop-opacity="0.10"/>
      <stop offset="1" stop-color="#000000" stop-opacity="0"/>
    </radialGradient>
    <linearGradient id="ledge" x1="150" y1="150" x2="360" y2="408" gradientUnits="userSpaceOnUse">
      <stop offset="0" stop-color="#818cf8"/>
      <stop offset="0.5" stop-color="#a855f7"/>
      <stop offset="1" stop-color="#38bdf8"/>
    </linearGradient>
    <linearGradient id="lshieldFill" x1="158" y1="150" x2="354" y2="408" gradientUnits="userSpaceOnUse">
      <stop offset="0" stop-color="#243056"/>
      <stop offset="0.6" stop-color="#161d38"/>
      <stop offset="1" stop-color="#0c1122"/>
    </linearGradient>
    <linearGradient id="lsteel" x1="249" y1="92" x2="263" y2="300" gradientUnits="userSpaceOnUse">
      <stop offset="0" stop-color="#ffffff"/>
      <stop offset="0.45" stop-color="#c7d2fe"/>
      <stop offset="1" stop-color="#7c8bdb"/>
    </linearGradient>
    <linearGradient id="laccent" x1="196" y1="288" x2="316" y2="378" gradientUnits="userSpaceOnUse">
      <stop offset="0" stop-color="#a855f7"/>
      <stop offset="1" stop-color="#38bdf8"/>
    </linearGradient>
    <linearGradient id="lword" x1="230" y1="70" x2="230" y2="150" gradientUnits="userSpaceOnUse">
      <stop offset="0" stop-color="#6366f1"/>
      <stop offset="1" stop-color="#a855f7"/>
    </linearGradient>
    <filter id="lglowf" x="-40%" y="-40%" width="180%" height="180%">
      <feGaussianBlur stdDeviation="4" result="b"/>
      <feMerge><feMergeNode in="b"/><feMergeNode in="SourceGraphic"/></feMerge>
    </filter>
  </defs>

  <!-- mark -->
  <g transform="translate(20,20)">
    <rect x="0" y="0" width="160" height="160" rx="38" fill="url(#lbg)"/>
    <rect x="0" y="0" width="160" height="160" rx="38" fill="url(#lglow)"/>
    <rect x="0.5" y="0.5" width="159" height="159" rx="37.5" stroke="#ffffff" stroke-opacity="0.08"/>
    <g transform="scale(0.3125)">
      <!-- shield -->
      <path d="M158 168 Q158 150 176 150 L336 150 Q354 150 354 168 L354 272 C354 330 320 372 256 408 C192 372 158 330 158 272 Z"
            fill="url(#lshieldFill)"/>
      <path d="M158 168 Q158 150 176 150 L336 150 Q354 150 354 168 L354 272 C354 330 320 372 256 408 C192 372 158 330 158 272 Z"
            fill="none" stroke="url(#ledge)" stroke-width="7" stroke-linejoin="round" filter="url(#lglowf)"/>
      <path d="M186 176 L256 158 L256 388 C214 358 186 322 186 280 Z" fill="#ffffff" opacity="0.05"/>
      <!-- sword -->
      <g filter="url(#lglowf)">
        <path d="M256 92 L263 140 L263 296 L249 296 L249 140 Z" fill="url(#lsteel)"/>
        <path d="M256 108 L256 292" stroke="#ffffff" stroke-width="1.6" stroke-linecap="round" opacity="0.55"/>
        <rect x="196" y="289" width="120" height="16" rx="8" fill="url(#laccent)"/>
        <rect x="249" y="305" width="14" height="52" rx="4" fill="#8ea0e8"/>
        <circle cx="256" cy="366" r="11" fill="url(#laccent)"/>
      </g>
    </g>
  </g>

  <!-- wordmark -->
  <text x="210" y="126" font-family="'Inter','Helvetica Neue',Arial,sans-serif" font-size="96" font-weight="800" letter-spacing="2" fill="url(#lword)">Orion</text>
</svg>
